<svg xmlns="http://www.w3.org/2000/svg" xml:space="preserve" width="2000" height="1500" data-id="lg_H9Ut0MSIYoN7du3m3u" data-version="1" viewBox="0 0 2000 1500"><path fill="#fff" stroke="transparent" d="M0 0h2000v1500H0z"/><g data-padding="20"><g transform="translate(-1647.059 -1236.95)scale(2.57847)"><rect width="192.18" height="386.46" x="530.264" y="177.181" fill="none" rx="0" ry="0" transform="translate(584.41 400.18)"/><path fill="#336" d="M1209.594 637.441q16.76.34 34.54 1.71t35.57 5.13l-2.05 21.89q-14.71-.68-32.49-1.2-17.79-.51-34.2-.51-12.66 0-21.72.85-9.06.86-14.88 4.11-5.81 3.25-8.38 10.6-2.56 7.35-2.56 20.35 0 19.49 7.01 27.19 7.01 7.69 22.74 11.46l47.88 11.97q27.36 6.49 37.45 22.74 10.09 16.24 10.09 43.6 0 20.52-4.62 33.18-4.61 12.65-14.19 19.32t-24.62 9.23q-15.05 2.57-35.57 2.57-11.63 0-30.27-1.03-18.64-1.02-42.92-5.47l2.05-22.23q20.18.69 32.49 1.2t21.21.51h18.46q18.13 0 28.56-2.73 10.43-2.74 14.71-10.95 4.27-8.21 4.27-24.28 0-13.68-3.08-21.2-3.07-7.53-9.74-11.46t-16.93-6.33l-48.91-12.31q-25.65-6.5-36.08-22.57-10.43-16.08-10.43-43.09 0-20.52 4.62-33.01 4.61-12.48 14.02-18.81 9.4-6.32 23.77-8.38 14.36-2.05 34.2-2.05M832.717 849.456a6.5 6.5 0 0 1-4.615-1.885L748.25 767.72a6.5 6.5 0 0 1 0-9.197l79.853-79.918a6.504 6.504 0 0 1 9.197 9.198l-75.27 75.302 75.27 75.238a6.5 6.5 0 0 1-4.582 11.115m128.167-.01a6.5 6.5 0 0 1-4.615-11.084l75.27-75.27-75.27-75.27a6.5 6.5 0 0 1 9.197-9.165l79.853 79.853a6.5 6.5 0 0 1 0 9.197l-79.853 79.852a6.5 6.5 0 0 1-4.582 1.885m-95.654 4.638q-1.203 0-2.373-.422a6.5 6.5 0 0 1-3.705-8.418l65-169a6.5 6.5 0 0 1 12.123 4.68l-65 169a6.5 6.5 0 0 1-6.013 4.16"/></g><path fill="transparent" stroke="transparent" stroke-width="2.674" d="M250 233.957h1500v1032.086H250z"/></g></svg>